<svg id="Capa_1" enable-background="new 0 0 512 512" height="512" viewBox="0 0 512 512" width="512" xmlns="http://www.w3.org/2000/svg">
	<g id="Outline_51_" fill="#7971EA">
		<path d="m331.5 250.5h-113.5v-72.461c0-15.428-15.237-26.31-29.835-21.271l-170.911 58.935c-10.32 3.559-17.254 13.283-17.254 24.199v234.098c0 20.678 16.822 37.5 37.5 37.5h294c12.406 0 22.5-10.094 22.5-22.5v-216c0-12.406-10.094-22.5-22.5-22.5zm-309.356-20.616c176.98-59.068 171.196-62.597 177.711-57.951 5.669 4.04 2.056 5.237 3.146 78.567h-177.403c-11.956 0-14.676-16.747-3.454-20.616zm309.356 266.616h-294c-12.406 0-22.5-10.094-22.5-22.5v-210.806c6.228 2.845 316.4 2.307 316.5 2.306 4.136 0 7.5 3.364 7.5 7.5v48.167h-78.167c-30.786 0-55.833 25.047-55.833 55.833s25.047 55.833 55.833 55.833h78.167v56.167c0 4.136-3.364 7.5-7.5 7.5zm7.5-160.333v81.666h-78.167c-22.516 0-40.833-18.317-40.833-40.833s18.317-40.833 40.833-40.833z" />
		<path d="m404.5 215.5c59.275 0 107.5-48.225 107.5-107.5s-48.225-107.5-107.5-107.5-107.5 48.225-107.5 107.5 48.225 107.5 107.5 107.5zm0-200c51.005 0 92.5 41.495 92.5 92.5s-41.495 92.5-92.5 92.5-92.5-41.495-92.5-92.5 41.495-92.5 92.5-92.5z" />
		<path d="m387.54 115.877h9.46v34.749h-34.334v15h34.334v17.374h15v-17.374h9.46c17.852 0 32.374-14.523 32.374-32.375s-14.522-32.374-32.374-32.374h-9.46v-34.749h34.334v-15h-34.334v-18.128h-15v18.128h-9.46c-17.852 0-32.374 14.523-32.374 32.375s14.522 32.374 32.374 32.374zm33.92 0c9.58 0 17.374 7.794 17.374 17.374 0 9.581-7.794 17.375-17.374 17.375h-9.46v-34.749zm-33.92-49.749h9.46v34.749h-9.46c-9.58 0-17.374-7.794-17.374-17.374 0-9.581 7.794-17.375 17.374-17.375z" />
		<path d="m178.878 137.628-4.375-14.348-36.833 11.23c31.742-51.57 90.124-83.048 151.531-79.781l.797-14.979c-67.139-3.584-130.382 30.138-165.214 87.043l-10.92-35.817-14.348 4.375 18.543 60.818z" />
		<path d="m398.889 270.194 6.588 13.477 36.736-17.959c-10.621 39.222-35.512 73.803-69.833 96.371l8.24 12.533c35.87-23.586 62.284-59.228 74.591-99.83l15.249 31.194 13.477-6.588-27.925-57.123z" />
		<path d="m243.667 377c0 12.406 10.094 22.5 22.5 22.5s22.5-10.094 22.5-22.5-10.094-22.5-22.5-22.5-22.5 10.094-22.5 22.5zm30 0c0 9.926-15 9.916-15 0 0-4.136 15-9.916 15 0z" />
	</g>
</svg>
